<mxfile host="app.diagrams.net" modified="2024-01-16T14:22:17.668Z" agent="Mozilla/5.0 (Macintosh; Intel Mac OS X 10_15_7) AppleWebKit/537.36 (KHTML, like Gecko) Chrome/120.0.0.0 Safari/537.36" etag="IBpZClIxmg4z7IG3_pK_" version="22.1.18" type="github">
  <diagram id="3228e29e-7158-1315-38df-8450db1d8a1d" name="Page-1">
    <mxGraphModel dx="2009" dy="772" grid="0" gridSize="10" guides="1" tooltips="1" connect="1" arrows="1" fold="1" page="1" pageScale="1" pageWidth="1300" pageHeight="400" background="#EFF1F3" math="0" shadow="0">
      <root>
        <mxCell id="0" />
        <mxCell id="1" parent="0" />
        <mxCell id="xLC9vXOyvmVQCKufnMO0-20" value="" style="rounded=1;whiteSpace=wrap;html=1;fillColor=none;strokeWidth=3;dashed=1;strokeColor=#123f67;" vertex="1" parent="1">
          <mxGeometry x="50" y="852" width="1166" height="189" as="geometry" />
        </mxCell>
        <mxCell id="xLC9vXOyvmVQCKufnMO0-1" value="" style="rounded=1;whiteSpace=wrap;html=1;fillColor=none;strokeWidth=3;dashed=1;strokeColor=#123f67;" vertex="1" parent="1">
          <mxGeometry x="50" y="495" width="1166" height="189" as="geometry" />
        </mxCell>
        <mxCell id="xLC9vXOyvmVQCKufnMO0-2" value="&lt;font style=&quot;font-size: 32px;&quot;&gt;存储层&lt;/font&gt;" style="rounded=1;whiteSpace=wrap;html=1;fontSize=22;fontColor=#FFFFFF;fillColor=#4A919B;strokeColor=none;" vertex="1" parent="1">
          <mxGeometry x="93.25" y="894" width="237.5" height="105" as="geometry" />
        </mxCell>
        <mxCell id="xLC9vXOyvmVQCKufnMO0-4" value="&lt;font size=&quot;1&quot;&gt;&lt;b style=&quot;&quot;&gt;&lt;font style=&quot;font-size: 29px;&quot; color=&quot;#123f67&quot;&gt;可水平扩展&lt;/font&gt;&lt;br&gt;&lt;/b&gt;&lt;/font&gt;" style="text;html=1;strokeColor=none;fillColor=none;align=center;verticalAlign=middle;whiteSpace=wrap;rounded=0;" vertex="1" parent="1">
          <mxGeometry x="1021" y="618" width="206" height="32" as="geometry" />
        </mxCell>
        <mxCell id="xLC9vXOyvmVQCKufnMO0-5" value="&lt;font style=&quot;font-size: 32px;&quot; color=&quot;#000000&quot;&gt;计算层&lt;/font&gt;" style="rounded=1;whiteSpace=wrap;html=1;fontSize=22;fontColor=#FFFFFF;fillColor=#9AC7BF;strokeColor=none;" vertex="1" parent="1">
          <mxGeometry x="92.5" y="552" width="239" height="100" as="geometry" />
        </mxCell>
        <mxCell id="xLC9vXOyvmVQCKufnMO0-8" value="&lt;font style=&quot;font-size: 32px;&quot;&gt;存储层&lt;/font&gt;" style="rounded=1;whiteSpace=wrap;html=1;fontSize=22;fontColor=#FFFFFF;fillColor=#4A919B;strokeColor=none;" vertex="1" parent="1">
          <mxGeometry x="444.25" y="892" width="237.5" height="105" as="geometry" />
        </mxCell>
        <mxCell id="xLC9vXOyvmVQCKufnMO0-11" value="&lt;font style=&quot;font-size: 32px;&quot; color=&quot;#000000&quot;&gt;计算层&lt;/font&gt;" style="rounded=1;whiteSpace=wrap;html=1;fontSize=22;fontColor=#FFFFFF;fillColor=#9AC7BF;strokeColor=none;" vertex="1" parent="1">
          <mxGeometry x="443.5" y="550" width="239" height="100" as="geometry" />
        </mxCell>
        <mxCell id="xLC9vXOyvmVQCKufnMO0-14" value="&lt;font style=&quot;font-size: 32px;&quot;&gt;存储层&lt;/font&gt;" style="rounded=1;whiteSpace=wrap;html=1;fontSize=22;fontColor=#FFFFFF;fillColor=#4A919B;strokeColor=none;" vertex="1" parent="1">
          <mxGeometry x="795" y="892" width="237.5" height="105" as="geometry" />
        </mxCell>
        <mxCell id="xLC9vXOyvmVQCKufnMO0-17" value="&lt;font style=&quot;font-size: 32px;&quot; color=&quot;#000000&quot;&gt;计算层&lt;/font&gt;" style="rounded=1;whiteSpace=wrap;html=1;fontSize=22;fontColor=#FFFFFF;fillColor=#9AC7BF;strokeColor=none;" vertex="1" parent="1">
          <mxGeometry x="794.25" y="550" width="239" height="100" as="geometry" />
        </mxCell>
        <mxCell id="xLC9vXOyvmVQCKufnMO0-19" value="&lt;b style=&quot;&quot;&gt;&lt;font style=&quot;font-size: 59px;&quot; color=&quot;#123f67&quot;&gt;...&lt;/font&gt;&lt;br&gt;&lt;/b&gt;" style="text;html=1;strokeColor=none;fillColor=none;align=center;verticalAlign=middle;whiteSpace=wrap;rounded=0;" vertex="1" parent="1">
          <mxGeometry x="1021" y="560" width="206" height="32" as="geometry" />
        </mxCell>
        <mxCell id="xLC9vXOyvmVQCKufnMO0-21" value="&lt;b style=&quot;&quot;&gt;&lt;font style=&quot;font-size: 59px;&quot; color=&quot;#123f67&quot;&gt;...&lt;/font&gt;&lt;br&gt;&lt;/b&gt;" style="text;html=1;strokeColor=none;fillColor=none;align=center;verticalAlign=middle;whiteSpace=wrap;rounded=0;" vertex="1" parent="1">
          <mxGeometry x="1021" y="910" width="206" height="32" as="geometry" />
        </mxCell>
        <mxCell id="xLC9vXOyvmVQCKufnMO0-22" value="" style="shape=flexArrow;endArrow=classic;html=1;rounded=0;fontSize=16;fontColor=#000000;fillColor=#FDD276;strokeColor=none;endWidth=35.714285714285715;endSize=11.883870967741936;width=28.387096774193548;" edge="1" parent="1">
          <mxGeometry width="50" height="50" relative="1" as="geometry">
            <mxPoint x="562" y="716" as="sourcePoint" />
            <mxPoint x="564" y="823" as="targetPoint" />
          </mxGeometry>
        </mxCell>
        <mxCell id="xLC9vXOyvmVQCKufnMO0-23" value="&lt;font size=&quot;1&quot;&gt;&lt;b style=&quot;&quot;&gt;&lt;font style=&quot;font-size: 29px;&quot; color=&quot;#123f67&quot;&gt;可水平扩展&lt;/font&gt;&lt;br&gt;&lt;/b&gt;&lt;/font&gt;" style="text;html=1;strokeColor=none;fillColor=none;align=center;verticalAlign=middle;whiteSpace=wrap;rounded=0;" vertex="1" parent="1">
          <mxGeometry x="1016" y="971" width="206" height="32" as="geometry" />
        </mxCell>
        <mxCell id="xLC9vXOyvmVQCKufnMO0-24" value="&lt;font size=&quot;1&quot;&gt;&lt;b style=&quot;font-size: 20px;&quot;&gt;&lt;font color=&quot;#123f67&quot;&gt;@小白debug&lt;/font&gt;&lt;br&gt;&lt;/b&gt;&lt;/font&gt;" style="text;html=1;strokeColor=none;fillColor=none;align=center;verticalAlign=middle;whiteSpace=wrap;rounded=0;opacity=30;textOpacity=30;" vertex="1" parent="1">
          <mxGeometry x="392" y="743" width="145" height="32" as="geometry" />
        </mxCell>
        <mxCell id="xLC9vXOyvmVQCKufnMO0-26" style="edgeStyle=orthogonalEdgeStyle;rounded=0;orthogonalLoop=1;jettySize=auto;html=1;exitX=0.5;exitY=0;exitDx=0;exitDy=0;entryX=0.5;entryY=1;entryDx=0;entryDy=0;strokeWidth=3;strokeColor=#4A909B;" edge="1" parent="1" source="xLC9vXOyvmVQCKufnMO0-25" target="xLC9vXOyvmVQCKufnMO0-8">
          <mxGeometry relative="1" as="geometry" />
        </mxCell>
        <mxCell id="xLC9vXOyvmVQCKufnMO0-27" style="edgeStyle=orthogonalEdgeStyle;rounded=1;orthogonalLoop=1;jettySize=auto;html=1;exitX=0.5;exitY=0;exitDx=0;exitDy=0;entryX=0.5;entryY=1;entryDx=0;entryDy=0;curved=0;strokeWidth=3;strokeColor=#4A909B;" edge="1" parent="1" source="xLC9vXOyvmVQCKufnMO0-25" target="xLC9vXOyvmVQCKufnMO0-14">
          <mxGeometry relative="1" as="geometry" />
        </mxCell>
        <mxCell id="xLC9vXOyvmVQCKufnMO0-28" style="edgeStyle=orthogonalEdgeStyle;rounded=1;orthogonalLoop=1;jettySize=auto;html=1;exitX=0.5;exitY=0;exitDx=0;exitDy=0;entryX=0.5;entryY=1;entryDx=0;entryDy=0;curved=0;strokeWidth=3;strokeColor=#4A909B;" edge="1" parent="1" source="xLC9vXOyvmVQCKufnMO0-25" target="xLC9vXOyvmVQCKufnMO0-2">
          <mxGeometry relative="1" as="geometry" />
        </mxCell>
        <mxCell id="xLC9vXOyvmVQCKufnMO0-25" value="&lt;font size=&quot;1&quot;&gt;&lt;b style=&quot;&quot;&gt;&lt;font style=&quot;font-size: 40px;&quot; color=&quot;#123f67&quot;&gt;Raft&lt;/font&gt;&lt;br&gt;&lt;/b&gt;&lt;/font&gt;" style="text;html=1;strokeColor=none;fillColor=none;align=center;verticalAlign=middle;whiteSpace=wrap;rounded=0;" vertex="1" parent="1">
          <mxGeometry x="470.75" y="1124" width="184.5" height="32" as="geometry" />
        </mxCell>
        <mxCell id="xLC9vXOyvmVQCKufnMO0-29" value="&lt;font size=&quot;1&quot;&gt;&lt;b style=&quot;&quot;&gt;&lt;font style=&quot;font-size: 29px;&quot; color=&quot;#123f67&quot;&gt;存算分离架构&lt;/font&gt;&lt;br&gt;&lt;/b&gt;&lt;/font&gt;" style="text;html=1;strokeColor=none;fillColor=none;align=center;verticalAlign=middle;whiteSpace=wrap;rounded=0;" vertex="1" parent="1">
          <mxGeometry x="55" y="447" width="206" height="32" as="geometry" />
        </mxCell>
      </root>
    </mxGraphModel>
  </diagram>
</mxfile>
